<svg width="32" height="32" viewBox="0 0 32 32" fill="none" xmlns="http://www.w3.org/2000/svg">
<path d="M2.66669 16C2.66669 23.36 8.64002 29.3333 16 29.3333C23.36 29.3333 29.3334 23.36 29.3334 16C29.3334 8.63996 23.36 2.66663 16 2.66663C8.64002 2.66663 2.66669 8.63996 2.66669 16ZM26.6667 16C26.6667 21.8933 21.8934 26.6666 16 26.6666C10.1067 26.6666 5.33335 21.8933 5.33335 16C5.33335 10.1066 10.1067 5.33329 16 5.33329C21.8934 5.33329 26.6667 10.1066 26.6667 16ZM10.6667 16L16 10.6666L17.88 12.5466L15.7734 14.6666H21.3334V17.3333H15.7734L17.8934 19.4533L16 21.3333L10.6667 16Z" fill="#555555"/>
</svg>
