<svg width="48" height="48" viewBox="0 0 48 48" fill="none" xmlns="http://www.w3.org/2000/svg">
<path d="M35.6383 26.9029C34.0356 33.3315 27.5244 37.2438 21.095 35.6407C14.6683 34.0381 10.756 27.5265 12.3594 21.0984C13.9614 14.669 20.4725 10.7564 26.8999 12.3591C33.3289 13.9618 37.241 20.474 35.6381 26.903L35.6382 26.9029H35.6383Z" fill="#F3BA2F" stroke="#CBD5E1"/>
<path fill-rule="evenodd" clip-rule="evenodd" d="M24 19.616L20.8927 22.7233L20.8927 22.7232L19.0848 20.9152L24 16L28.9168 20.9167L27.1088 22.7247L24 19.616ZM17.8081 22.1917L16 24L17.8079 25.8077L19.616 23.9996L17.8081 22.1917ZM20.8927 25.2769L24 28.384L27.1087 25.2754L28.9177 27.0824L28.9168 27.0834L24 32L19.0848 27.0848L19.0822 27.0822L20.8927 25.2769ZM30.1921 22.1927L28.384 24.0008L30.192 25.8087L32 24.0006L30.1921 22.1927Z" fill="white"/>
<path d="M25.8337 23.999H25.8345L24 22.1644L22.644 23.52L22.4883 23.6758L22.167 23.9972L22.1644 23.9997L22.167 24.0023L24 25.8356L25.8346 24.001L25.8355 23.9999L25.8339 23.999" fill="white"/>
</svg>
