<svg width="119" height="89" viewBox="0 0 119 89" fill="none" xmlns="http://www.w3.org/2000/svg">
<path d="M50.0395 53.5038C49.7866 53.5928 49.4594 53.6373 49.028 53.6373C48.3884 53.6373 47.8826 53.4297 47.5405 53.0292C47.2876 52.777 47.124 52.4655 47.0348 52.0947C46.9455 51.7238 46.9009 51.3233 46.9009 50.8932V44.0698C46.9009 43.8177 47.1091 43.6248 47.3471 43.6248H50.9171C51.17 43.6248 51.3634 43.4172 51.3634 43.1798V39.9165C51.3634 39.6643 51.1551 39.4715 50.9171 39.4715H47.3471C47.0943 39.4715 46.9009 39.2638 46.9009 39.0265V34.354C46.9009 34.1018 46.6926 33.909 46.4546 33.909H42.483C42.2301 33.909 42.0368 34.1167 42.0368 34.354V39.0265C42.0368 39.2787 41.8285 39.4715 41.5905 39.4715H39.2998C39.0469 39.4715 38.8535 39.6792 38.8535 39.9165V43.1798C38.8535 43.432 39.0618 43.6248 39.2998 43.6248H41.5905C41.8434 43.6248 42.0368 43.8325 42.0368 44.0698V51.7683C42.0368 53.8598 42.6169 55.4915 43.792 56.6188C44.2829 57.1232 44.9076 57.5237 45.6365 57.8203C46.3654 58.117 47.1984 58.2505 48.1206 58.2505C48.909 58.2505 49.6379 58.1763 50.3073 58.0428C50.813 57.939 51.3039 57.7907 51.765 57.5978C51.9881 57.5088 52.1071 57.2715 52.0328 57.0342L50.9469 53.667C50.8576 53.4 50.575 53.2962 50.3221 53.4C50.2031 53.4445 50.1288 53.4742 50.0395 53.5038Z" fill="#002F9B"/>
<path d="M58.2505 30.7643C57.7745 30.7347 57.3134 30.8237 56.882 31.0017C56.4953 31.1649 56.168 31.3874 55.8705 31.6692C55.5879 31.951 55.3648 32.2774 55.2011 32.6482C55.0375 33.019 54.9631 33.4343 54.9631 33.8793C54.9631 34.3243 55.0375 34.7397 55.2011 35.1105C55.3648 35.4813 55.5879 35.8077 55.8705 36.0895C56.1531 36.3714 56.4953 36.5939 56.882 36.757C57.3134 36.935 57.7596 37.0092 58.2356 36.9943C59.0538 36.9647 59.857 36.5939 60.4223 35.9857C60.9726 35.3924 61.2553 34.6952 61.2553 33.8793C61.2553 33.0635 60.9875 32.3664 60.4371 31.7879C59.8719 31.1797 59.0835 30.794 58.2505 30.7643Z" fill="#002F9B"/>
<path d="M56.1234 57.6572H60.095C60.3479 57.6572 60.5561 57.4495 60.5561 57.1973V39.9017C60.5561 39.6495 60.3479 39.4418 60.095 39.4418H56.1234C55.8705 39.4418 55.6622 39.6495 55.6622 39.9017V57.1973C55.6622 57.4495 55.8705 57.6572 56.1234 57.6572Z" fill="#002F9B"/>
<path d="M78.3615 34.1167V40.3319C78.3615 40.7324 77.8706 40.94 77.588 40.6434C77.231 40.2874 76.7847 39.961 76.279 39.6644C75.3418 39.1155 74.1667 38.8485 72.7833 38.8485C71.6082 38.8485 70.5075 39.0859 69.4513 39.5754C68.3952 40.0649 67.4581 40.7324 66.6548 41.5779C65.8516 42.4382 65.212 43.4469 64.736 44.6484C64.26 45.835 64.022 47.1404 64.022 48.5495C64.022 49.9587 64.26 51.264 64.736 52.4507C65.212 53.6374 65.8516 54.6609 66.6548 55.5212C67.4581 56.3815 68.3952 57.049 69.4513 57.5237C70.5075 58.0132 71.6231 58.2505 72.7833 58.2505C74.1667 58.2505 75.3418 57.9835 76.279 57.4347C76.7847 57.138 77.2161 56.8117 77.588 56.4557C77.8855 56.1739 78.3615 56.3667 78.3615 56.7672V57.1974C78.3615 57.4495 78.5697 57.6572 78.8226 57.6572H81.4257H82.7794C83.0322 57.6572 83.2405 57.4495 83.2405 57.1974V31.506C83.2405 31.2539 83.0322 31.0462 82.7794 31.0462H78.8077C78.5548 31.0462 78.3466 31.2539 78.3466 31.506V34.1167H78.3615ZM78.2425 50.7449C77.9747 51.3827 77.6029 51.9315 77.1566 52.3765C76.7104 52.8215 76.1897 53.1627 75.6096 53.4C75.0295 53.6374 74.4047 53.756 73.7651 53.756C73.1255 53.756 72.5007 53.6374 71.9206 53.3852C71.3405 53.133 70.8198 52.7919 70.3736 52.3469C69.9273 51.9019 69.5703 51.353 69.2877 50.7152C69.02 50.0774 68.8712 49.3505 68.8712 48.5644C68.8712 47.7782 69.0051 47.0514 69.2877 46.4135C69.5555 45.7757 69.9273 45.2269 70.3736 44.7819C70.8198 44.3369 71.3405 43.9957 71.9206 43.7435C72.5007 43.4914 73.1255 43.3727 73.7651 43.3727C74.4047 43.3727 75.0295 43.4914 75.6096 43.7287C76.1897 43.966 76.7104 44.3072 77.1566 44.7522C77.6029 45.1972 77.9598 45.746 78.2425 46.3839C78.5102 47.0217 78.659 47.7634 78.659 48.5792C78.659 49.395 78.5251 50.0922 78.2425 50.7449Z" fill="#002F9B"/>
<path d="M95.3042 38.8485C92.0614 38.8485 89.4732 39.9907 87.5543 42.2602C87.4502 42.3788 87.4799 42.5717 87.6138 42.6607L90.7078 44.7818C90.8268 44.856 90.9756 44.8412 91.0648 44.7373C92.1953 43.4468 93.5787 42.809 95.2001 42.809C96.3454 42.809 97.2974 43.1205 98.0709 43.7583C98.8444 44.3962 99.2312 45.1823 99.2312 46.1613V46.725C98.7403 46.5322 98.1007 46.3393 97.3272 46.1465C96.5537 45.9537 95.5719 45.8647 94.3819 45.8647C93.3109 45.8647 92.3292 46.013 91.4218 46.2948C90.5144 46.5767 89.7261 46.992 89.0567 47.5408C88.3873 48.0897 87.8667 48.7423 87.4948 49.484C87.1229 50.2405 86.9296 51.086 86.9296 52.0353C86.9296 52.955 87.1081 53.8005 87.4502 54.557C87.7923 55.3283 88.2832 55.981 88.9079 56.5298C89.5327 57.0787 90.2616 57.5088 91.0946 57.8055C91.9276 58.117 92.8201 58.2653 93.7572 58.2653C93.9803 58.2653 94.1886 58.2505 94.3968 58.2357C94.9026 58.2208 96.8809 58.0725 98.7849 56.2183C98.9486 56.0552 99.2461 56.159 99.2461 56.4112V57.405C99.2461 57.5533 99.3651 57.672 99.5138 57.672H103.783C103.932 57.672 104.051 57.5533 104.051 57.405V46.725C104.051 44.1292 103.307 42.1563 101.819 40.8362C100.302 39.516 98.1453 38.8485 95.3042 38.8485ZM92.7159 53.7857C92.1061 53.3407 91.8086 52.7473 91.8086 52.0057C91.8086 51.264 92.1209 50.641 92.7606 50.1367C93.4002 49.6323 94.2927 49.3802 95.4678 49.3802C96.1818 49.3802 96.8512 49.4543 97.4611 49.6175C98.0114 49.7658 98.5469 49.9587 99.0676 50.196C99.1717 50.2405 99.2312 50.3443 99.2312 50.4482C99.2163 50.9228 99.1122 51.3975 98.9188 51.8425C98.7106 52.3468 98.4131 52.7918 98.0263 53.1775C97.6396 53.5632 97.1784 53.8747 96.6281 54.112C96.0777 54.3493 95.4827 54.468 94.8431 54.468C94.0249 54.4532 93.3258 54.2307 92.7159 53.7857Z" fill="#002F9B"/>
<path d="M108.275 31.506V57.1974C108.275 57.4495 108.483 57.6572 108.736 57.6572H112.708C112.961 57.6572 113.169 57.4495 113.169 57.1974V31.506C113.169 31.2539 112.961 31.0462 112.708 31.0462H108.736C108.483 31.0462 108.275 31.2539 108.275 31.506Z" fill="#002F9B"/>
<path d="M30.1963 57.7017H6.29218C6.0393 57.7017 5.83105 57.494 5.83105 57.2418V54.023C5.83105 53.7708 6.0393 53.5632 6.29218 53.5632H30.1963C30.4492 53.5632 30.6574 53.7708 30.6574 54.023V57.2418C30.6574 57.494 30.4492 57.7017 30.1963 57.7017Z" fill="#002F9B"/>
<path d="M30.6574 50.5075C30.6574 50.7597 30.4492 50.9674 30.1814 50.9674C28.0543 50.908 26.8643 50.4927 25.8231 50.107C24.8562 49.7658 24.0976 49.484 22.3869 49.484C20.6763 49.484 19.9177 49.751 18.9508 50.107C17.8203 50.5075 16.5411 50.9674 14.1164 50.9674C11.6918 50.9674 10.4126 50.5075 9.28207 50.107C8.40445 49.7955 7.69045 49.5434 6.2922 49.4989C6.0542 49.484 5.84595 49.2912 5.84595 49.0539V45.835C5.84595 45.5829 6.0542 45.3752 6.32195 45.3752C8.44907 45.4345 9.63907 45.8499 10.6803 46.2355C11.6472 46.5767 12.4058 46.8585 14.1164 46.8585C15.8271 46.8585 16.5857 46.5915 17.5526 46.2355C18.6831 45.835 19.9623 45.3752 22.3869 45.3752C24.8116 45.3752 26.0908 45.835 27.2213 46.2355C28.0989 46.547 28.8129 46.7992 30.2112 46.8437C30.4492 46.8585 30.6574 47.0513 30.6574 47.2887V50.5075Z" fill="#002F9B"/>
<path d="M30.6574 43.165C30.6574 43.4172 30.4492 43.6248 30.1814 43.6248C28.0543 43.5655 26.8643 43.1502 25.8231 42.7645C24.8562 42.4233 24.0976 42.1415 22.3869 42.1415C20.6763 42.1415 19.9177 42.4085 18.9508 42.7645C17.8203 43.165 16.5411 43.6248 14.1164 43.6248C11.6918 43.6248 10.4126 43.165 9.28207 42.7497C8.40445 42.4382 7.69045 42.186 6.2922 42.1415C6.0542 42.1267 5.84595 41.9338 5.84595 41.6965V38.4777C5.84595 38.2255 6.0542 38.0178 6.32195 38.0178C8.44907 38.0772 9.63907 38.4925 10.6803 38.8782C11.6472 39.2193 12.4058 39.5012 14.1164 39.5012C15.8271 39.5012 16.5857 39.2342 17.5526 38.8782C18.6831 38.4777 19.9623 38.0178 22.3869 38.0178C24.8116 38.0178 26.0908 38.4777 27.2213 38.8782C28.0989 39.1897 28.8129 39.4418 30.2112 39.4863C30.4492 39.5012 30.6574 39.694 30.6574 39.9313V43.165Z" fill="#002F9B"/>
</svg>
