<svg width="128" height="128" viewBox="0 0 128 128" fill="none" xmlns="http://www.w3.org/2000/svg">
<rect x="1" y="1" width="126" height="126" rx="15" fill="white" stroke="#F2F2F2" stroke-width="2"/>
<path d="M109.495 74.0016V72.4813H113V84.8552H111.263V74.0016H109.495ZM98.2914 74.0016V72.4813H101.797V84.8552H100.06V74.0016H98.2914ZM80.2827 84.8552V73.655H81.0134L88.2704 82.0269V73.655H89.661V84.8552H88.9521L81.6735 76.4834V84.8552H80.2827ZM64.8295 84.8552V73.655H73.6256V74.9455H66.2167V78.2299H70.6995V79.5202H66.2167V83.5719H74.081V84.8587H64.8295V84.8552ZM53.7496 84.8552H52.8777L47.4879 73.655H48.9986L53.3154 82.6314L57.6324 73.655H59.1713L53.7496 84.8552ZM32.3416 84.8552L37.8233 73.655H38.9776L44.5193 84.8552H43.0085L41.4908 81.8431H35.3102L33.8312 84.8552H32.3416ZM35.949 80.5314H40.8731L38.4023 75.5713L35.949 80.5314ZM15 84.8552V73.655H16.2848L20.8064 80.5137L25.3492 73.655H26.6164V84.8552H25.2469V76.1086L20.8064 82.7339L16.3695 76.1086V84.8552H15Z" fill="#333333"/>
<path d="M94.3879 98.5584V94.5352H94.885V98.0953H97.5082V98.5584H94.3879ZM82.4818 98.5584L84.4513 94.5352H84.8643L86.8548 98.5584H86.3115L85.7644 97.4767H83.5442L83.0112 98.5584H82.4818ZM83.7771 97.0064H85.5456L84.6561 95.2246L83.7771 97.0064ZM74.1656 98.5584V94.9983H72.4749V94.5352H76.3576V94.9983H74.6669V98.5584H74.1656ZM64.8294 98.5584V94.514H65.3378V98.5584H64.8294ZM53.5096 98.5584V94.5352H55.8144C56.2063 94.5352 56.5098 94.6307 56.7357 94.8251C56.9616 95.0196 57.0711 95.2847 57.0711 95.6241C57.0711 95.9741 56.9616 96.257 56.7463 96.4726C56.531 96.6882 56.2416 96.7978 55.8815 96.7978H54.0107V98.5584H53.5096ZM54.0107 96.3276H55.7863C56.0368 96.3276 56.231 96.271 56.3581 96.1615C56.4886 96.0519 56.5522 95.8857 56.5522 95.67C56.5522 95.4579 56.4886 95.2953 56.3581 95.1787C56.2275 95.062 56.0474 95.0018 55.8109 95.0018H54.0107V96.3276ZM41.6284 98.5584L43.598 94.5352H44.0145L46.0053 98.5584H45.4617L44.9146 97.4767H42.6944L42.1614 98.5584H41.6284ZM42.9238 97.0064H44.6922L43.8027 95.2246L42.9238 97.0064ZM34.0147 97.2751L34.4171 97.5721C34.2336 97.9221 33.9795 98.1908 33.6582 98.3782C33.3405 98.5655 32.9734 98.661 32.5676 98.661C31.9675 98.661 31.4698 98.463 31.078 98.0635C30.6862 97.6676 30.492 97.162 30.492 96.5504C30.492 95.9388 30.6898 95.4332 31.0815 95.0372C31.4768 94.6412 31.971 94.4397 32.5711 94.4397C32.9417 94.4397 33.2805 94.5211 33.5876 94.6837C33.8947 94.8463 34.1418 95.0797 34.3324 95.3802L33.9124 95.6771C33.7853 95.4367 33.6053 95.2493 33.3653 95.1115C33.1288 94.9771 32.8605 94.9064 32.5676 94.9064C32.1158 94.9064 31.7416 95.062 31.4486 95.3731C31.1521 95.6842 31.0039 96.0731 31.0039 96.5468C31.0039 97.0206 31.1521 97.413 31.4486 97.7206C31.7451 98.0282 32.1193 98.1837 32.5676 98.1837C32.8817 98.1837 33.1641 98.1059 33.4076 97.9503C33.6512 97.8054 33.8524 97.5757 34.0147 97.2751Z" fill="#333333"/>
<path d="M75.6976 45.4673C75.6976 46.2451 75.6976 54.9776 75.6624 55.5362C75.5918 57.8271 75.5176 57.9579 73.1845 57.9579H71.5325C71.2466 57.9579 71.0313 58.0003 71.0313 58.216V59.2978C71.0313 59.5559 71.1408 59.6443 71.3172 59.6443C71.4972 59.6443 76.5554 59.5134 76.8801 59.5134C77.2013 59.5134 82.083 59.6443 82.4077 59.6443C82.6583 59.6443 82.7324 59.5594 82.7324 59.2978V58.3044C82.7324 58.0887 82.623 57.9579 82.3724 57.9579H81.0805C78.7474 57.9579 78.6026 57.6539 78.5673 55.4089C78.5673 54.8468 78.532 45.683 78.532 45.1668V43.3532C78.532 37.7778 78.6415 30.9934 78.6415 30.6046C78.6415 30.2581 78.6061 30 78.3908 30C78.2109 30 78.0661 30.1308 77.8896 30.2581L70.4595 35.4021C70.2089 35.5753 70.1736 35.7486 70.2442 35.9218L70.5301 36.6996C70.6007 36.8728 70.7454 36.8728 70.8901 36.8304L73.4033 35.8369C73.9787 35.6213 74.5152 35.4905 74.8399 35.4905C75.5212 35.4905 75.6659 36.4415 75.7012 37.9122C75.7365 41.3274 75.7012 43.3568 75.7012 43.9189V45.4673H75.6976Z" fill="#CFA863"/>
<path d="M52.3024 45.4673C52.3024 46.2451 52.3024 54.9776 52.3377 55.5362C52.4083 57.8271 52.4824 57.9579 54.8156 57.9579H56.4675C56.7534 57.9579 56.9687 58.0003 56.9687 58.216V59.2978C56.9687 59.5559 56.8629 59.6443 56.6828 59.6443C56.5028 59.6443 51.4447 59.5134 51.12 59.5134C50.7987 59.5134 45.9171 59.6443 45.5924 59.6443C45.3418 59.6443 45.2712 59.5594 45.2712 59.2978V58.3044C45.2712 58.0887 45.3806 57.9579 45.6312 57.9579H46.9231C49.2563 57.9579 49.401 57.6539 49.4362 55.4089C49.4362 54.8468 49.4716 45.683 49.4716 45.1668V43.3532C49.4716 37.7778 49.3621 30.9934 49.3621 30.6046C49.3621 30.2581 49.3974 30 49.6127 30C49.7928 30 49.934 30.1308 50.114 30.2581L57.5441 35.4021C57.7947 35.5753 57.83 35.7486 57.7594 35.9218L57.4735 36.6996C57.4029 36.8728 57.2582 36.8728 57.1134 36.8304L54.6003 35.8369C54.0249 35.6213 53.4884 35.4905 53.1637 35.4905C52.4824 35.4905 52.3377 36.4415 52.3024 37.9122C52.2671 41.3274 52.3024 43.3568 52.3024 43.9189V45.4673Z" fill="#CFA863"/>
</svg>
