<svg width="48" height="48" viewBox="0 0 48 48" fill="none" xmlns="http://www.w3.org/2000/svg">
<circle cx="24" cy="24" r="12" fill="#EDF0F4" stroke="#CBD5E1"/>
<path d="M27.6005 21.5899C27.3446 21.4427 27.0157 21.4427 26.7232 21.5899L24.6762 22.8042L23.2872 23.5769L21.2768 24.7911C21.0209 24.9383 20.6919 24.9383 20.3995 24.7911L18.8277 23.8344C18.5718 23.6872 18.389 23.3929 18.389 23.0617V21.222C18.389 20.9276 18.5352 20.6332 18.8277 20.4493L20.3995 19.5294C20.6554 19.3822 20.9843 19.3822 21.2768 19.5294L22.8486 20.4861C23.1044 20.6332 23.2872 20.9276 23.2872 21.2588V22.473L24.6762 21.6635V20.4125C24.6762 20.1181 24.53 19.8237 24.2376 19.6398L21.3133 17.9104C21.0574 17.7632 20.7285 17.7632 20.436 17.9104L17.4386 19.6766C17.1462 19.8237 17 20.1181 17 20.4125V23.8712C17 24.1656 17.1462 24.4599 17.4386 24.6439L20.3995 26.3733C20.6554 26.5205 20.9843 26.5205 21.2768 26.3733L23.2872 25.1958L24.6762 24.3864L26.6867 23.2089C26.9426 23.0617 27.2715 23.0617 27.564 23.2089L29.1358 24.1288C29.3916 24.276 29.5744 24.5703 29.5744 24.9015V26.7412C29.5744 27.0356 29.4282 27.33 29.1358 27.5139L27.6005 28.4338C27.3446 28.581 27.0157 28.581 26.7232 28.4338L25.1514 27.5139C24.8956 27.3668 24.7128 27.0724 24.7128 26.7412V25.5638L23.3238 26.3733V27.5875C23.3238 27.8819 23.47 28.1763 23.7624 28.3602L26.7232 30.0896C26.9791 30.2368 27.3081 30.2368 27.6005 30.0896L30.5614 28.3602C30.8172 28.2131 31 27.9187 31 27.5875V24.092C31 23.7976 30.8538 23.5033 30.5614 23.3193L27.6005 21.5899Z" fill="#8247E5"/>
</svg>
