<svg width="100" height="34" viewBox="0 0 100 34" fill="none" xmlns="http://www.w3.org/2000/svg">
<rect width="100" height="34" rx="8" fill="url(#paint0_linear_4_24605)"/>
<path d="M30.258 13.664C30.0527 13.4027 29.782 13.1973 29.446 13.048C29.1193 12.8893 28.802 12.81 28.494 12.81C28.3353 12.81 28.172 12.824 28.004 12.852C27.8453 12.88 27.7007 12.936 27.57 13.02C27.4393 13.0947 27.3273 13.1973 27.234 13.328C27.15 13.4493 27.108 13.608 27.108 13.804C27.108 13.972 27.1407 14.112 27.206 14.224C27.2807 14.336 27.3833 14.434 27.514 14.518C27.654 14.602 27.8173 14.6813 28.004 14.756C28.1907 14.8213 28.4007 14.8913 28.634 14.966C28.97 15.078 29.32 15.204 29.684 15.344C30.048 15.4747 30.3793 15.652 30.678 15.876C30.9767 16.1 31.224 16.38 31.42 16.716C31.616 17.0427 31.714 17.4533 31.714 17.948C31.714 18.5173 31.6067 19.012 31.392 19.432C31.1867 19.8427 30.9067 20.1833 30.552 20.454C30.1973 20.7247 29.7913 20.9253 29.334 21.056C28.8767 21.1867 28.4053 21.252 27.92 21.252C27.2107 21.252 26.5247 21.1307 25.862 20.888C25.1993 20.636 24.6487 20.2813 24.21 19.824L25.778 18.228C26.0207 18.5267 26.338 18.7787 26.73 18.984C27.1313 19.18 27.528 19.278 27.92 19.278C28.0973 19.278 28.27 19.2593 28.438 19.222C28.606 19.1847 28.7507 19.124 28.872 19.04C29.0027 18.956 29.1053 18.844 29.18 18.704C29.2547 18.564 29.292 18.396 29.292 18.2C29.292 18.0133 29.2453 17.8547 29.152 17.724C29.0587 17.5933 28.9233 17.4767 28.746 17.374C28.578 17.262 28.3633 17.164 28.102 17.08C27.85 16.9867 27.5607 16.8887 27.234 16.786C26.9167 16.6833 26.604 16.562 26.296 16.422C25.9973 16.282 25.7267 16.1047 25.484 15.89C25.2507 15.666 25.0593 15.4 24.91 15.092C24.77 14.7747 24.7 14.392 24.7 13.944C24.7 13.3933 24.812 12.922 25.036 12.53C25.26 12.138 25.554 11.816 25.918 11.564C26.282 11.312 26.6927 11.13 27.15 11.018C27.6073 10.8967 28.0693 10.836 28.536 10.836C29.096 10.836 29.6653 10.9387 30.244 11.144C30.832 11.3493 31.3453 11.6527 31.784 12.054L30.258 13.664ZM37.2835 17.962H36.9895C36.7375 17.962 36.4808 17.976 36.2195 18.004C35.9675 18.0227 35.7388 18.0647 35.5335 18.13C35.3375 18.1953 35.1742 18.2933 35.0435 18.424C34.9128 18.5453 34.8475 18.7087 34.8475 18.914C34.8475 19.0447 34.8755 19.1567 34.9315 19.25C34.9968 19.3433 35.0762 19.418 35.1695 19.474C35.2628 19.53 35.3702 19.572 35.4915 19.6C35.6128 19.6187 35.7295 19.628 35.8415 19.628C36.3082 19.628 36.6628 19.502 36.9055 19.25C37.1575 18.9887 37.2835 18.6387 37.2835 18.2V17.962ZM33.0695 14.98C33.4802 14.588 33.9562 14.294 34.4975 14.098C35.0482 13.902 35.6082 13.804 36.1775 13.804C36.7655 13.804 37.2602 13.8787 37.6615 14.028C38.0722 14.168 38.4035 14.392 38.6555 14.7C38.9075 14.9987 39.0895 15.3813 39.2015 15.848C39.3228 16.3053 39.3835 16.8513 39.3835 17.486V21H37.2835V20.258H37.2415C37.0642 20.5473 36.7935 20.7713 36.4295 20.93C36.0748 21.0887 35.6875 21.168 35.2675 21.168C34.9875 21.168 34.6982 21.1307 34.3995 21.056C34.1008 20.9813 33.8255 20.86 33.5735 20.692C33.3308 20.524 33.1302 20.3 32.9715 20.02C32.8128 19.74 32.7335 19.3947 32.7335 18.984C32.7335 18.48 32.8688 18.074 33.1395 17.766C33.4195 17.458 33.7742 17.22 34.2035 17.052C34.6422 16.884 35.1275 16.772 35.6595 16.716C36.1915 16.66 36.7095 16.632 37.2135 16.632V16.52C37.2135 16.1747 37.0922 15.9227 36.8495 15.764C36.6068 15.596 36.3082 15.512 35.9535 15.512C35.6268 15.512 35.3095 15.582 35.0015 15.722C34.7028 15.862 34.4462 16.03 34.2315 16.226L33.0695 14.98ZM45.4232 12.11C45.3392 12.082 45.2412 12.0587 45.1292 12.04C45.0172 12.0213 44.9052 12.012 44.7932 12.012C44.5785 12.012 44.4058 12.0493 44.2752 12.124C44.1445 12.1987 44.0418 12.3013 43.9672 12.432C43.8925 12.5533 43.8412 12.6933 43.8132 12.852C43.7852 13.0107 43.7712 13.1693 43.7712 13.328V14.028H45.3252V15.75H43.7712V21H41.4752V15.75H40.2012V14.028H41.4752V13.356C41.4752 12.9267 41.5218 12.5207 41.6152 12.138C41.7085 11.746 41.8672 11.4053 42.0912 11.116C42.3245 10.8173 42.6325 10.584 43.0152 10.416C43.4072 10.2387 43.8925 10.15 44.4712 10.15C44.6672 10.15 44.8585 10.164 45.0452 10.192C45.2412 10.2107 45.4185 10.2433 45.5772 10.29L45.4232 12.11ZM50.9988 16.716C50.9988 16.352 50.8821 16.0393 50.6488 15.778C50.4248 15.5167 50.0841 15.386 49.6268 15.386C49.4028 15.386 49.1974 15.4233 49.0108 15.498C48.8241 15.5633 48.6608 15.6567 48.5208 15.778C48.3808 15.8993 48.2688 16.044 48.1848 16.212C48.1008 16.3707 48.0541 16.5387 48.0448 16.716H50.9988ZM53.1128 17.598C53.1128 17.6913 53.1128 17.7847 53.1128 17.878C53.1128 17.9713 53.1081 18.06 53.0988 18.144H48.0448C48.0634 18.34 48.1194 18.5173 48.2128 18.676C48.3154 18.8347 48.4414 18.9747 48.5908 19.096C48.7494 19.208 48.9221 19.2967 49.1088 19.362C49.3048 19.4273 49.5054 19.46 49.7108 19.46C50.0748 19.46 50.3828 19.3947 50.6348 19.264C50.8868 19.124 51.0921 18.9467 51.2508 18.732L52.8468 19.74C52.5201 20.216 52.0861 20.5847 51.5448 20.846C51.0128 21.098 50.3921 21.224 49.6828 21.224C49.1601 21.224 48.6654 21.1447 48.1988 20.986C47.7321 20.818 47.3214 20.58 46.9668 20.272C46.6214 19.9547 46.3461 19.5673 46.1408 19.11C45.9448 18.6527 45.8468 18.13 45.8468 17.542C45.8468 16.9727 45.9448 16.4593 46.1408 16.002C46.3368 15.5353 46.6028 15.1433 46.9388 14.826C47.2748 14.4993 47.6714 14.2473 48.1288 14.07C48.5861 13.8927 49.0808 13.804 49.6128 13.804C50.1261 13.804 50.5974 13.8927 51.0268 14.07C51.4561 14.238 51.8248 14.4853 52.1328 14.812C52.4408 15.1387 52.6788 15.5353 52.8468 16.002C53.0241 16.4687 53.1128 17.0007 53.1128 17.598ZM65.4286 17.486C65.4286 18.0553 65.326 18.5733 65.1206 19.04C64.9153 19.4973 64.6353 19.8893 64.2806 20.216C63.926 20.5333 63.5153 20.7807 63.0486 20.958C62.582 21.1353 62.0826 21.224 61.5506 21.224C61.028 21.224 60.5286 21.1353 60.0526 20.958C59.586 20.7807 59.1753 20.5333 58.8206 20.216C58.4753 19.8893 58.2 19.4973 57.9946 19.04C57.7893 18.5733 57.6866 18.0553 57.6866 17.486C57.6866 16.9167 57.7893 16.4033 57.9946 15.946C58.2 15.4887 58.4753 15.1013 58.8206 14.784C59.1753 14.4667 59.586 14.224 60.0526 14.056C60.5286 13.888 61.028 13.804 61.5506 13.804C62.0826 13.804 62.582 13.888 63.0486 14.056C63.5153 14.224 63.926 14.4667 64.2806 14.784C64.6353 15.1013 64.9153 15.4887 65.1206 15.946C65.326 16.4033 65.4286 16.9167 65.4286 17.486ZM63.2166 17.486C63.2166 17.262 63.1793 17.0427 63.1046 16.828C63.03 16.6133 62.9226 16.4267 62.7826 16.268C62.6426 16.1 62.47 15.9647 62.2646 15.862C62.0593 15.7593 61.8213 15.708 61.5506 15.708C61.28 15.708 61.042 15.7593 60.8366 15.862C60.6313 15.9647 60.4586 16.1 60.3186 16.268C60.188 16.4267 60.0853 16.6133 60.0106 16.828C59.9453 17.0427 59.9126 17.262 59.9126 17.486C59.9126 17.71 59.9453 17.9293 60.0106 18.144C60.0853 18.3587 60.1926 18.5547 60.3326 18.732C60.4726 18.9 60.6453 19.0353 60.8506 19.138C61.056 19.2407 61.294 19.292 61.5646 19.292C61.8353 19.292 62.0733 19.2407 62.2786 19.138C62.484 19.0353 62.6566 18.9 62.7966 18.732C62.9366 18.5547 63.0393 18.3587 63.1046 18.144C63.1793 17.9293 63.2166 17.71 63.2166 17.486ZM71.4603 21V17.192C71.4603 16.996 71.4417 16.8093 71.4043 16.632C71.3763 16.4547 71.325 16.3007 71.2503 16.17C71.1757 16.03 71.0683 15.9227 70.9283 15.848C70.7977 15.764 70.6297 15.722 70.4243 15.722C70.219 15.722 70.037 15.764 69.8783 15.848C69.729 15.9227 69.603 16.03 69.5003 16.17C69.3977 16.31 69.3183 16.4733 69.2623 16.66C69.2157 16.8373 69.1923 17.024 69.1923 17.22V21H66.8823V14.028H69.1083V14.994H69.1363C69.2203 14.8447 69.3277 14.7 69.4583 14.56C69.5983 14.4107 69.757 14.2847 69.9343 14.182C70.121 14.0793 70.3217 13.9953 70.5363 13.93C70.751 13.8647 70.9797 13.832 71.2223 13.832C71.689 13.832 72.0857 13.916 72.4123 14.084C72.739 14.252 73.0003 14.4713 73.1963 14.742C73.4017 15.0033 73.5463 15.3067 73.6303 15.652C73.7237 15.9973 73.7703 16.3427 73.7703 16.688V21H71.4603ZM80.3113 16.716C80.3113 16.352 80.1946 16.0393 79.9613 15.778C79.7373 15.5167 79.3966 15.386 78.9393 15.386C78.7153 15.386 78.5099 15.4233 78.3233 15.498C78.1366 15.5633 77.9733 15.6567 77.8333 15.778C77.6933 15.8993 77.5813 16.044 77.4973 16.212C77.4133 16.3707 77.3666 16.5387 77.3573 16.716H80.3113ZM82.4253 17.598C82.4253 17.6913 82.4253 17.7847 82.4253 17.878C82.4253 17.9713 82.4206 18.06 82.4113 18.144H77.3573C77.3759 18.34 77.4319 18.5173 77.5253 18.676C77.6279 18.8347 77.7539 18.9747 77.9033 19.096C78.0619 19.208 78.2346 19.2967 78.4213 19.362C78.6173 19.4273 78.8179 19.46 79.0233 19.46C79.3873 19.46 79.6953 19.3947 79.9473 19.264C80.1993 19.124 80.4046 18.9467 80.5633 18.732L82.1593 19.74C81.8326 20.216 81.3986 20.5847 80.8573 20.846C80.3253 21.098 79.7046 21.224 78.9953 21.224C78.4726 21.224 77.9779 21.1447 77.5113 20.986C77.0446 20.818 76.6339 20.58 76.2793 20.272C75.9339 19.9547 75.6586 19.5673 75.4533 19.11C75.2573 18.6527 75.1593 18.13 75.1593 17.542C75.1593 16.9727 75.2573 16.4593 75.4533 16.002C75.6493 15.5353 75.9153 15.1433 76.2513 14.826C76.5873 14.4993 76.9839 14.2473 77.4413 14.07C77.8986 13.8927 78.3933 13.804 78.9253 13.804C79.4386 13.804 79.9099 13.8927 80.3393 14.07C80.7686 14.238 81.1373 14.4853 81.4453 14.812C81.7533 15.1387 81.9913 15.5353 82.1593 16.002C82.3366 16.4687 82.4253 17.0007 82.4253 17.598Z" fill="#002F9B"/>
<defs>
<linearGradient id="paint0_linear_4_24605" x1="100" y1="34" x2="-6.7234e-07" y2="1.97747e-06" gradientUnits="userSpaceOnUse">
<stop stop-color="#DCE3F2"/>
<stop offset="1" stop-color="#EDF2FC"/>
</linearGradient>
</defs>
</svg>
