<svg width="26" height="26" viewBox="0 0 26 26" fill="none" xmlns="http://www.w3.org/2000/svg">
<path d="M13 25C19.65 25 25 19.65 25 13C25 6.34996 19.65 1 13 1C6.34996 1 1 6.34996 1 13C1 19.65 6.34996 25 13 25Z" fill="#2775CA" stroke="#CBD5E1"/>
<path d="M16.3 14.8999C16.3 13.15 15.25 12.55 13.15 12.3C11.65 12.1 11.35 11.7 11.35 10.9999C11.35 10.2999 11.85 9.84998 12.85 9.84998C13.75 9.84998 14.25 10.15 14.5 10.9C14.55 11.05 14.7 11.1499 14.85 11.1499H15.65C15.85 11.1499 16 10.9999 16 10.8V10.75C15.8 9.64995 14.9 8.79998 13.75 8.70002V7.50003C13.75 7.29999 13.6 7.14999 13.35 7.09995H12.6C12.4 7.09995 12.25 7.24995 12.2 7.50003V8.64998C10.7 8.85002 9.75004 9.84999 9.75004 11.1C9.75004 12.75 10.75 13.3999 12.85 13.65C14.25 13.9 14.7 14.2 14.7 15C14.7 15.8001 14 16.35 13.05 16.35C11.75 16.35 11.3 15.7999 11.15 15.0499C11.1 14.85 10.95 14.7499 10.8 14.7499H9.94996C9.75004 14.7499 9.60004 14.8999 9.60004 15.1V15.15C9.79996 16.3999 10.6 17.2999 12.25 17.55V18.75C12.25 18.9499 12.4 19.0999 12.65 19.15H13.4C13.6 19.15 13.75 19 13.8 18.75V17.55C15.3 17.2999 16.3 16.2499 16.3 14.8999Z" fill="white"/>
<path fill-rule="evenodd" clip-rule="evenodd" d="M6.00004 10.55C4.54996 14.4 6.55 18.75 10.45 20.15C10.6 20.25 10.75 20.45 10.75 20.6V21.3C10.75 21.4 10.75 21.45 10.7 21.5C10.65 21.7 10.45 21.8 10.25 21.7C7.45 20.8 5.29996 18.65 4.39996 15.85C2.89996 11.1 5.5 6.04995 10.25 4.54995C10.3 4.50003 10.4 4.50003 10.45 4.50003C10.65 4.54995 10.75 4.69995 10.75 4.89999V5.59995C10.75 5.85003 10.65 6.00003 10.45 6.09999C8.40004 6.84999 6.75004 8.44995 6.00004 10.55ZM15.3 4.74999C15.35 4.54995 15.55 4.44999 15.75 4.54995C18.5 5.44995 20.7 7.59999 21.6 10.45C23.1 15.2 20.5 20.25 15.75 21.75C15.7 21.7999 15.6 21.7999 15.55 21.7999C15.35 21.75 15.25 21.6 15.25 21.4V20.7C15.25 20.45 15.35 20.3 15.55 20.2C17.6 19.45 19.25 17.85 20 15.75C21.45 11.9 19.45 7.54995 15.55 6.15003C15.4 6.04995 15.25 5.85003 15.25 5.64999V4.95003C15.25 4.84995 15.25 4.80003 15.3 4.74999Z" fill="white"/>
</svg>
